<svg width="17" height="17" viewBox="0 0 17 17" fill="none" xmlns="http://www.w3.org/2000/svg">
<path d="M6.44958 1.5124L6.77038 1.352L7.01098 1.08476H7.14459L7.30499 0.790748V0.416549L7.17123 0.282931C7.17123 0.282931 7.27821 0.439927 6.904 0.187713C6.88416 0.174252 6.86121 0.15654 6.83726 0.137695C4.02293 0.695983 1.70961 2.6437 0.640625 5.23632C0.72054 5.24213 0.774526 5.25531 0.783311 5.28124C0.783311 5.28124 2.70767 3.19648 4.09753 3.03608L4.44496 2.10062C4.44496 2.10062 4.44496 2.31443 4.57858 2.10062C4.7122 1.8868 4.44496 2.15404 4.7122 1.8868C4.97944 1.61957 4.97943 1.56601 5.13983 1.48594C5.30023 1.40575 5.38043 1.35233 5.46063 1.29891C5.54083 1.24549 5.83483 1.08509 5.83483 1.08509H5.96845L5.80805 1.27213L5.64765 1.43253L5.46061 1.59293L5.327 1.67284L5.2468 1.85987L5.327 2.04691C5.327 2.04691 5.38042 2.04691 5.56759 2.02013C5.75463 1.99335 6.02199 1.99335 5.96845 1.91315C5.91503 1.83295 6.07543 1.72612 6.15549 1.67255L6.23568 1.61913L6.44958 1.5124Z" fill="#073353"/>
<path d="M4.43601 15.4448V15.2346L4.40612 14.9943L4.31586 14.8443L4.28568 14.4537H4.1957L4.16552 14.2436H4.31557L4.61596 13.9432V13.7932L4.58578 13.6129H4.49552L4.5257 13.1323L4.74929 12.7117C4.74929 12.7117 4.70594 12.5016 4.73583 12.2912C4.76573 12.0808 4.73583 11.9908 4.73583 11.9908L4.58578 11.9307C4.43544 11.8708 4.37565 11.7505 4.28539 11.6904C4.19541 11.6305 4.10515 11.4502 4.10515 11.4502C4.10515 11.4502 3.89502 11.2697 3.71463 11.2099C3.5344 11.1498 3.71463 11.2099 3.59419 11.1797C3.47404 11.1496 3.11357 10.9995 3.05364 10.9092C2.99357 10.819 2.66298 10.6689 2.57302 10.5789C2.48276 10.4887 2.42126 10.4286 2.42126 10.4286L2.39902 10.2786C2.39902 10.2786 2.45272 10.1285 2.39278 10.0081C2.33271 9.88791 2.42297 9.85801 2.39278 9.76775C2.3626 9.67777 2.39278 9.58751 2.39278 9.58751L2.24245 9.3472L2.18251 9.22704C2.12244 9.1066 2.12244 9.01691 2.00228 8.92665C1.88184 8.83639 1.79186 8.62626 1.64152 8.57936C1.49147 8.53232 1.28106 8.08542 1.28106 8.08542C1.28106 8.08542 1.22098 7.87529 1.01056 7.6949C0.80043 7.51438 0.80043 7.6949 0.650094 7.87514C0.499758 8.05537 0.499758 7.87514 0.499758 7.87514C0.499758 7.87514 0.403121 8.11956 0.319522 8.08527C0.208292 8.03979 0.108681 7.99912 0.0167202 7.96171C0.00666002 8.13132 0 8.3015 0 8.47335C0 11.598 1.68745 14.3272 4.1994 15.8039C4.20067 15.8018 4.20237 15.7994 4.20351 15.7973C4.36022 15.8889 4.51906 15.9775 4.68101 16.059L4.77708 15.8678C4.62717 15.7923 4.47981 15.7112 4.33472 15.6267C4.41209 15.5287 4.43618 15.4447 4.43618 15.4447L4.43601 15.4448Z" fill="#073353"/>
<path d="M14.9755 3.82786C14.9755 3.82786 14.8626 3.23768 14.6539 2.61439C13.2433 1.13283 11.3041 0.161237 9.13847 0C9.08987 0.210982 9.07329 0.358769 9.1141 0.400716C9.21612 0.506134 9.21612 0.506134 9.21612 0.506134L9.34378 0.743473L9.54754 0.7959L9.59841 0.927816L9.47102 1.1123L9.21612 1.0858H9.06323H8.70659H8.4956C8.4956 1.0858 8.47719 1.16515 8.37517 1.24408C8.27315 1.32314 8.24778 1.22353 8.19663 1.35247C8.14576 1.48142 8.09461 1.69226 8.09461 1.69226L8.12026 1.85025L8.29865 1.95581H8.49532C8.57892 1.95581 8.85919 1.98217 8.85919 1.98217C8.93528 1.82389 8.78281 1.56034 8.78281 1.56034H8.62992L8.75731 1.35233H9.03758L9.21597 1.58669L9.26684 1.79753V2.00837L9.16482 2.19286L8.98643 2.27178H8.7318L8.49532 2.4037L8.22199 2.61511L8.0946 2.82609C7.96722 3.03665 7.86534 3.19521 7.86534 3.19521L7.89085 3.40605L7.94171 3.56432C7.76318 3.66974 8.01809 3.59068 7.63594 3.66974L7.25365 3.74881C7.25365 3.74881 7.20278 3.77488 7.15163 3.82773C7.10048 3.8803 7.17713 3.61689 7.10048 3.8803C7.0241 4.14399 6.94759 4.2759 6.94759 4.2759L7.15163 4.43418C7.15163 4.43418 6.97309 4.56595 7.15163 4.59216C7.33002 4.61852 7.07526 4.59216 7.33002 4.61852C7.58493 4.64502 7.81406 4.61852 7.81406 4.61852L7.94173 4.43418L8.19635 4.19698L8.37488 3.95978L8.49532 3.80151L8.70631 3.69609C8.70631 3.69609 8.83355 3.56432 8.88442 3.66974C8.93528 3.77487 8.91006 4.09156 8.91006 4.09156L9.21584 4.17049H9.34351C9.34351 4.17049 9.39437 4.19698 9.47089 4.24955C9.5474 4.30212 9.70015 4.32862 9.70015 4.32862L9.80217 4.11778L9.98056 3.93329C9.98056 3.93329 10.0827 3.90694 10.1591 3.90694C10.2356 3.90694 10.3629 3.986 10.3629 3.986L10.6023 4.03857H11.2295L11.4841 3.93315L11.6117 4.01222C11.6881 4.22306 11.6625 4.30198 11.6117 4.38134C11.5606 4.46041 11.5606 4.46041 11.5606 4.46041C11.5606 4.46041 11.5354 4.48676 11.306 4.59218C11.0767 4.6976 10.5924 4.80302 10.4904 4.80302H10.3884C10.3884 4.80302 10.3375 4.77667 10.1591 4.75045C9.98057 4.7241 9.67478 4.59218 9.67478 4.59218L9.39451 4.48676H9.1396C9.1396 4.48676 8.88456 4.46041 8.73182 4.46041C8.57878 4.46041 8.49533 4.51326 8.49533 4.51326L8.37489 4.53961L8.01796 4.77681L7.71219 4.9613L7.5593 5.06671L7.4067 5.18149L7.27931 5.35704L6.89703 5.67331C6.79501 5.80522 6.79501 5.80522 6.79501 5.80522L6.43808 6.56683V6.78064L6.28519 6.91242V7.28168C6.28519 7.28168 6.41258 7.94071 6.28519 8.01964C6.15781 8.0987 6.28519 8.33604 6.28519 8.33604L6.22852 8.50565L6.56277 8.86315L6.89703 9.12684L7.63625 9.575H8.27343C8.27343 9.575 8.22228 9.44308 8.60471 9.39052L8.987 9.33766L9.1654 9.2851L9.4203 9.31159L9.57319 9.33767L9.75158 9.44308L10.083 9.575H10.1852V10.6292L10.4396 10.84V11.0245H10.5417L10.6947 11.3408C10.6947 11.3408 10.7456 11.5518 10.6947 11.7626L10.6438 11.9736L10.5675 12.2105C10.5675 12.2105 10.6183 12.3424 10.593 12.4478C10.587 12.4726 10.5825 12.4906 10.5791 12.5054C10.5955 12.4716 10.6336 12.4748 10.7177 12.7642L10.8479 13.2124C10.8479 13.2124 10.8731 13.3178 10.8479 13.4232C10.8215 13.5291 10.7451 13.9244 10.7451 13.9244L10.8585 14.0824V14.1878H10.9745C10.9745 14.1878 10.7961 14.2669 10.9745 14.2669H11.1529L11.3313 14.1351C11.3313 14.1351 11.3313 14.0033 11.5606 13.8979L11.79 13.7925L11.9174 13.6869L12.0448 13.5289C12.0448 13.5289 12.2233 13.3181 12.3253 13.2392L12.4273 13.1601C12.4273 13.1601 12.4782 13.1337 12.6314 12.9493L12.7843 12.7648V12.6594L13.0648 12.2637L13.1921 12.0266L13.3451 11.4928C13.3451 11.4928 13.5997 10.7874 13.5997 10.7085V10.4186L13.7527 10.2078C13.7527 10.2078 13.8291 9.60159 13.8548 9.46966C13.8804 9.33775 13.8803 9.33775 13.8803 9.33775C13.8803 9.33775 13.9311 9.3906 14.0332 8.99513L14.1352 8.59953V8.38869C14.1352 8.38869 14.0332 8.33612 14.1352 8.20421C14.2373 8.07243 14.2373 8.07243 14.2373 8.07243V7.83495L14.2626 7.46568L13.9059 7.33391L13.6765 7.17592L13.5236 7.07035L13.3199 6.83344L13.1668 6.56677C12.9884 6.49068 13.1413 6.56975 12.9884 6.49068L12.8356 6.41162C12.8356 6.41162 12.5041 6.01631 12.5041 5.93708V5.85802L12.4786 5.67353C12.4786 5.67353 12.5806 5.43634 12.7335 5.67353C12.8861 5.91087 12.7844 5.67353 12.8861 5.91087C12.9883 6.14807 12.7589 5.91087 12.9883 6.14807C13.2177 6.38527 13.2689 6.14509 13.2689 6.14509C13.2689 6.14509 13.3197 6.0632 13.4217 6.14509C13.5238 6.22713 13.651 6.56692 13.651 6.56692H13.8805C13.8805 6.56692 13.9314 6.56437 14.0079 6.56692C14.0843 6.5699 14.1608 6.56692 14.1608 6.56692C14.1608 6.56692 14.1608 6.30606 14.2628 6.22714C14.3649 6.14807 14.3394 6.33256 14.3649 6.14807C14.3904 5.96359 14.5689 5.96359 14.3649 5.75247C14.1611 5.54163 14.0591 5.48878 14.0336 5.3832C14.0081 5.27807 13.9827 5.34877 13.9062 5.18157C13.8297 5.01437 13.7024 4.85639 13.5493 4.80324C13.3964 4.75067 13.3455 4.77688 13.269 4.67146C13.1925 4.56604 13.0144 4.43427 13.0144 4.43427L13.0652 4.30235H13.2436C13.2436 4.30235 13.2945 4.40791 13.371 4.46062C13.4474 4.51347 13.5748 4.64511 13.5748 4.64511C13.5748 4.64511 13.7533 4.67146 13.9062 4.67146C14.0591 4.67146 13.8807 4.75053 14.0591 4.67146C14.2376 4.5924 14.4615 4.51347 14.4615 4.51347L14.7472 4.48698L14.8493 4.30249L14.9767 4.01273L14.977 3.82781L14.9755 3.82786Z" fill="#073353"/>
<path d="M10.5799 12.5059C10.5709 12.5243 10.5684 12.554 10.5684 12.554C10.5684 12.5539 10.5685 12.5526 10.5799 12.5059Z" fill="#073353"/>
<path d="M0.382407 7.17853V7.04492L0.582903 6.9113V6.7509H0.783399V6.34794L0.67642 6.21645V6.08283L0.676562 5.94907V5.76204H0.542944V5.60164L0.510496 5.56934C0.308441 6.12548 0.164478 6.70898 0.0820312 7.31217H0.222309L0.382407 7.17853Z" fill="#073353"/>
<path d="M16.5733 8.21701C16.6916 8.68929 16.1728 8.49374 16.1728 8.49374L15.8782 8.91186L15.504 9.37805V10.7294H15.2368V11.157L14.916 12.0123V12.8878H15.1298L15.2776 13.2629C15.2776 13.2629 15.3258 13.3469 15.3789 13.4648C16.3983 12.0628 17.0008 10.3389 17.0008 8.47318C17.0008 8.1599 16.9826 7.85102 16.9496 7.5465C16.5604 7.2104 16.2914 7.08913 16.5733 8.21713L16.5733 8.21701Z" fill="#073353"/>
<path d="M16.6582 6.20192C16.5007 5.63202 16.2819 5.07714 16.0081 4.55273L15.8184 4.65178C16.0852 5.16302 16.2982 5.70357 16.4519 6.25914L16.6582 6.20192Z" fill="#073353"/>
<path d="M9.83009 16.6328L9.86452 16.8438C10.4493 16.748 11.0247 16.5905 11.5742 16.376L11.4964 16.1768C10.9608 16.386 10.4001 16.5396 9.83008 16.6328L9.83009 16.6328Z" fill="#073353"/>
<path d="M13.0293 15.3824L13.147 15.561C13.6399 15.2359 14.1007 14.8577 14.5168 14.4365L14.3647 14.2861C13.9591 14.6969 13.5098 15.0656 13.0293 15.3824L13.0293 15.3824Z" fill="#073353"/>
<path d="M6.33984 16.6846C6.91145 16.8333 7.50133 16.9223 8.09317 16.9488L8.10281 16.7351C7.52569 16.7092 6.95068 16.6226 6.3937 16.4775L6.33984 16.6846Z" fill="#073353"/>
<path d="M6.44958 1.5124L6.77038 1.352L7.01098 1.08476H7.14459L7.30499 0.790748V0.416549L7.17123 0.282931C7.17123 0.282931 7.27821 0.439927 6.904 0.187713C6.88416 0.174252 6.86121 0.15654 6.83726 0.137695C4.02293 0.695983 1.70961 2.6437 0.640625 5.23632C0.72054 5.24213 0.774526 5.25531 0.783311 5.28124C0.783311 5.28124 2.70767 3.19648 4.09753 3.03608L4.44496 2.10062C4.44496 2.10062 4.44496 2.31443 4.57858 2.10062C4.7122 1.8868 4.44496 2.15404 4.7122 1.8868C4.97944 1.61957 4.97943 1.56601 5.13983 1.48594C5.30023 1.40575 5.38043 1.35233 5.46063 1.29891C5.54083 1.24549 5.83483 1.08509 5.83483 1.08509H5.96845L5.80805 1.27213L5.64765 1.43253L5.46061 1.59293L5.327 1.67284L5.2468 1.85987L5.327 2.04691C5.327 2.04691 5.38042 2.04691 5.56759 2.02013C5.75463 1.99335 6.02199 1.99335 5.96845 1.91315C5.91503 1.83295 6.07543 1.72612 6.15549 1.67255L6.23568 1.61913L6.44958 1.5124Z" fill="#073353"/>
<path d="M4.43601 15.4448V15.2346L4.40612 14.9943L4.31586 14.8443L4.28568 14.4537H4.1957L4.16552 14.2436H4.31557L4.61596 13.9432V13.7932L4.58578 13.6129H4.49552L4.5257 13.1323L4.74929 12.7117C4.74929 12.7117 4.70594 12.5016 4.73583 12.2912C4.76573 12.0808 4.73583 11.9908 4.73583 11.9908L4.58578 11.9307C4.43544 11.8708 4.37565 11.7505 4.28539 11.6904C4.19541 11.6305 4.10515 11.4502 4.10515 11.4502C4.10515 11.4502 3.89502 11.2697 3.71463 11.2099C3.5344 11.1498 3.71463 11.2099 3.59419 11.1797C3.47404 11.1496 3.11357 10.9995 3.05364 10.9092C2.99357 10.819 2.66298 10.6689 2.57302 10.5789C2.48276 10.4887 2.42126 10.4286 2.42126 10.4286L2.39902 10.2786C2.39902 10.2786 2.45272 10.1285 2.39278 10.0081C2.33271 9.88791 2.42297 9.85801 2.39278 9.76775C2.3626 9.67777 2.39278 9.58751 2.39278 9.58751L2.24245 9.3472L2.18251 9.22704C2.12244 9.1066 2.12244 9.01691 2.00228 8.92665C1.88184 8.83639 1.79186 8.62626 1.64152 8.57936C1.49147 8.53232 1.28106 8.08542 1.28106 8.08542C1.28106 8.08542 1.22098 7.87529 1.01056 7.6949C0.80043 7.51438 0.80043 7.6949 0.650094 7.87514C0.499758 8.05537 0.499758 7.87514 0.499758 7.87514C0.499758 7.87514 0.403121 8.11956 0.319522 8.08527C0.208292 8.03979 0.108681 7.99912 0.0167202 7.96171C0.00666002 8.13132 0 8.3015 0 8.47335C0 11.598 1.68745 14.3272 4.1994 15.8039C4.20067 15.8018 4.20237 15.7994 4.20351 15.7973C4.36022 15.8889 4.51906 15.9775 4.68101 16.059L4.77708 15.8678C4.62717 15.7923 4.47981 15.7112 4.33472 15.6267C4.41209 15.5287 4.43618 15.4447 4.43618 15.4447L4.43601 15.4448Z" fill="#073353"/>
<path d="M14.9755 3.82786C14.9755 3.82786 14.8626 3.23768 14.6539 2.61439C13.2433 1.13283 11.3041 0.161237 9.13847 0C9.08987 0.210982 9.07329 0.358769 9.1141 0.400716C9.21612 0.506134 9.21612 0.506134 9.21612 0.506134L9.34378 0.743473L9.54754 0.7959L9.59841 0.927816L9.47102 1.1123L9.21612 1.0858H9.06323H8.70659H8.4956C8.4956 1.0858 8.47719 1.16515 8.37517 1.24408C8.27315 1.32314 8.24778 1.22353 8.19663 1.35247C8.14576 1.48142 8.09461 1.69226 8.09461 1.69226L8.12026 1.85025L8.29865 1.95581H8.49532C8.57892 1.95581 8.85919 1.98217 8.85919 1.98217C8.93528 1.82389 8.78281 1.56034 8.78281 1.56034H8.62992L8.75731 1.35233H9.03758L9.21597 1.58669L9.26684 1.79753V2.00837L9.16482 2.19286L8.98643 2.27178H8.7318L8.49532 2.4037L8.22199 2.61511L8.0946 2.82609C7.96722 3.03665 7.86534 3.19521 7.86534 3.19521L7.89085 3.40605L7.94171 3.56432C7.76318 3.66974 8.01809 3.59068 7.63594 3.66974L7.25365 3.74881C7.25365 3.74881 7.20278 3.77488 7.15163 3.82773C7.10048 3.8803 7.17713 3.61689 7.10048 3.8803C7.0241 4.14399 6.94759 4.2759 6.94759 4.2759L7.15163 4.43418C7.15163 4.43418 6.97309 4.56595 7.15163 4.59216C7.33002 4.61852 7.07526 4.59216 7.33002 4.61852C7.58493 4.64502 7.81406 4.61852 7.81406 4.61852L7.94173 4.43418L8.19635 4.19698L8.37488 3.95978L8.49532 3.80151L8.70631 3.69609C8.70631 3.69609 8.83355 3.56432 8.88442 3.66974C8.93528 3.77487 8.91006 4.09156 8.91006 4.09156L9.21584 4.17049H9.34351C9.34351 4.17049 9.39437 4.19698 9.47089 4.24955C9.5474 4.30212 9.70015 4.32862 9.70015 4.32862L9.80217 4.11778L9.98056 3.93329C9.98056 3.93329 10.0827 3.90694 10.1591 3.90694C10.2356 3.90694 10.3629 3.986 10.3629 3.986L10.6023 4.03857H11.2295L11.4841 3.93315L11.6117 4.01222C11.6881 4.22306 11.6625 4.30198 11.6117 4.38134C11.5606 4.46041 11.5606 4.46041 11.5606 4.46041C11.5606 4.46041 11.5354 4.48676 11.306 4.59218C11.0767 4.6976 10.5924 4.80302 10.4904 4.80302H10.3884C10.3884 4.80302 10.3375 4.77667 10.1591 4.75045C9.98057 4.7241 9.67478 4.59218 9.67478 4.59218L9.39451 4.48676H9.1396C9.1396 4.48676 8.88456 4.46041 8.73182 4.46041C8.57878 4.46041 8.49533 4.51326 8.49533 4.51326L8.37489 4.53961L8.01796 4.77681L7.71219 4.9613L7.5593 5.06671L7.4067 5.18149L7.27931 5.35704L6.89703 5.67331C6.79501 5.80522 6.79501 5.80522 6.79501 5.80522L6.43808 6.56683V6.78064L6.28519 6.91242V7.28168C6.28519 7.28168 6.41258 7.94071 6.28519 8.01964C6.15781 8.0987 6.28519 8.33604 6.28519 8.33604L6.22852 8.50565L6.56277 8.86315L6.89703 9.12684L7.63625 9.575H8.27343C8.27343 9.575 8.22228 9.44308 8.60471 9.39052L8.987 9.33766L9.1654 9.2851L9.4203 9.31159L9.57319 9.33767L9.75158 9.44308L10.083 9.575H10.1852V10.6292L10.4396 10.84V11.0245H10.5417L10.6947 11.3408C10.6947 11.3408 10.7456 11.5518 10.6947 11.7626L10.6438 11.9736L10.5675 12.2105C10.5675 12.2105 10.6183 12.3424 10.593 12.4478C10.587 12.4726 10.5825 12.4906 10.5791 12.5054C10.5955 12.4716 10.6336 12.4748 10.7177 12.7642L10.8479 13.2124C10.8479 13.2124 10.8731 13.3178 10.8479 13.4232C10.8215 13.5291 10.7451 13.9244 10.7451 13.9244L10.8585 14.0824V14.1878H10.9745C10.9745 14.1878 10.7961 14.2669 10.9745 14.2669H11.1529L11.3313 14.1351C11.3313 14.1351 11.3313 14.0033 11.5606 13.8979L11.79 13.7925L11.9174 13.6869L12.0448 13.5289C12.0448 13.5289 12.2233 13.3181 12.3253 13.2392L12.4273 13.1601C12.4273 13.1601 12.4782 13.1337 12.6314 12.9493L12.7843 12.7648V12.6594L13.0648 12.2637L13.1921 12.0266L13.3451 11.4928C13.3451 11.4928 13.5997 10.7874 13.5997 10.7085V10.4186L13.7527 10.2078C13.7527 10.2078 13.8291 9.60159 13.8548 9.46966C13.8804 9.33775 13.8803 9.33775 13.8803 9.33775C13.8803 9.33775 13.9311 9.3906 14.0332 8.99513L14.1352 8.59953V8.38869C14.1352 8.38869 14.0332 8.33612 14.1352 8.20421C14.2373 8.07243 14.2373 8.07243 14.2373 8.07243V7.83495L14.2626 7.46568L13.9059 7.33391L13.6765 7.17592L13.5236 7.07035L13.3199 6.83344L13.1668 6.56677C12.9884 6.49068 13.1413 6.56975 12.9884 6.49068L12.8356 6.41162C12.8356 6.41162 12.5041 6.01631 12.5041 5.93708V5.85802L12.4786 5.67353C12.4786 5.67353 12.5806 5.43634 12.7335 5.67353C12.8861 5.91087 12.7844 5.67353 12.8861 5.91087C12.9883 6.14807 12.7589 5.91087 12.9883 6.14807C13.2177 6.38527 13.2689 6.14509 13.2689 6.14509C13.2689 6.14509 13.3197 6.0632 13.4217 6.14509C13.5238 6.22713 13.651 6.56692 13.651 6.56692H13.8805C13.8805 6.56692 13.9314 6.56437 14.0079 6.56692C14.0843 6.5699 14.1608 6.56692 14.1608 6.56692C14.1608 6.56692 14.1608 6.30606 14.2628 6.22714C14.3649 6.14807 14.3394 6.33256 14.3649 6.14807C14.3904 5.96359 14.5689 5.96359 14.3649 5.75247C14.1611 5.54163 14.0591 5.48878 14.0336 5.3832C14.0081 5.27807 13.9827 5.34877 13.9062 5.18157C13.8297 5.01437 13.7024 4.85639 13.5493 4.80324C13.3964 4.75067 13.3455 4.77688 13.269 4.67146C13.1925 4.56604 13.0144 4.43427 13.0144 4.43427L13.0652 4.30235H13.2436C13.2436 4.30235 13.2945 4.40791 13.371 4.46062C13.4474 4.51347 13.5748 4.64511 13.5748 4.64511C13.5748 4.64511 13.7533 4.67146 13.9062 4.67146C14.0591 4.67146 13.8807 4.75053 14.0591 4.67146C14.2376 4.5924 14.4615 4.51347 14.4615 4.51347L14.7472 4.48698L14.8493 4.30249L14.9767 4.01273L14.977 3.82781L14.9755 3.82786Z" fill="#073353"/>
<path d="M10.5799 12.5059C10.5709 12.5243 10.5684 12.554 10.5684 12.554C10.5684 12.5539 10.5685 12.5526 10.5799 12.5059Z" fill="#073353"/>
<path d="M0.382407 7.17853V7.04492L0.582903 6.9113V6.7509H0.783399V6.34794L0.67642 6.21645V6.08283L0.676562 5.94907V5.76204H0.542944V5.60164L0.510496 5.56934C0.308441 6.12548 0.164478 6.70898 0.0820312 7.31217H0.222309L0.382407 7.17853Z" fill="#073353"/>
<path d="M16.5733 8.21701C16.6916 8.68929 16.1728 8.49374 16.1728 8.49374L15.8782 8.91186L15.504 9.37805V10.7294H15.2368V11.157L14.916 12.0123V12.8878H15.1298L15.2776 13.2629C15.2776 13.2629 15.3258 13.3469 15.3789 13.4648C16.3983 12.0628 17.0008 10.3389 17.0008 8.47318C17.0008 8.1599 16.9826 7.85102 16.9496 7.5465C16.5604 7.2104 16.2914 7.08913 16.5733 8.21713L16.5733 8.21701Z" fill="#073353"/>
<path d="M16.6582 6.20192C16.5007 5.63202 16.2819 5.07714 16.0081 4.55273L15.8184 4.65178C16.0852 5.16302 16.2982 5.70357 16.4519 6.25914L16.6582 6.20192Z" fill="#073353"/>
<path d="M9.83009 16.6328L9.86452 16.8438C10.4493 16.748 11.0247 16.5905 11.5742 16.376L11.4964 16.1768C10.9608 16.386 10.4001 16.5396 9.83008 16.6328L9.83009 16.6328Z" fill="#073353"/>
<path d="M13.0293 15.3824L13.147 15.561C13.6399 15.2359 14.1007 14.8577 14.5168 14.4365L14.3647 14.2861C13.9591 14.6969 13.5098 15.0656 13.0293 15.3824L13.0293 15.3824Z" fill="#073353"/>
<path d="M6.33984 16.6846C6.91145 16.8333 7.50133 16.9223 8.09317 16.9488L8.10281 16.7351C7.52569 16.7092 6.95068 16.6226 6.3937 16.4775L6.33984 16.6846Z" fill="#073353"/>
</svg>
